<?xml version="1.0" encoding="UTF-8"?>
<svg width="1151px" height="486px" viewBox="0 0 1151 486" version="1.1" xmlns="http://www.w3.org/2000/svg" xmlns:xlink="http://www.w3.org/1999/xlink">
    <!-- Generator: Sketch 46.2 (44496) - http://www.bohemiancoding.com/sketch -->
    <title>Artboard</title>
    <desc>Created with Sketch.</desc>
    <defs></defs>
    <g id="Page-1" stroke="none" stroke-width="1" fill="none" fill-rule="evenodd">
        <g id="Artboard" fill="#F4F4F4">
            <g id="Group" transform="translate(-49.000000, 23.000000)">
                <path d="M308.815869,50.1638 C308.27423,48.3779939 308,46.5279698 308,44.6683813 C308,36.4990355 313.315425,29.2287414 321.023882,26.7105771 C322.775681,11.4266999 335.517147,0 350.984542,0 C362.349401,0 372.542301,6.22231153 377.760858,16.288137 C395.965097,16.5914644 410.818544,31.5132615 410.989085,49.8112844 L411,51 L309.069634,51 L308.815869,50.1638 Z" id="Page-1-Copy-2"></path>
                <path d="M734.815869,187.1638 C734.27423,185.377994 734,183.52797 734,181.668381 C734,173.499036 739.315425,166.228741 747.023882,163.710577 C748.775681,148.4267 761.517147,137 776.984542,137 C788.349401,137 798.542301,143.222312 803.760858,153.288137 C821.965097,153.591464 836.818544,168.513262 836.989085,186.811284 L837,188 L735.069634,188 L734.815869,187.1638 Z" id="Page-1-Copy-3"></path>
                <path d="M1000.23568,101.737502 C999.415339,99.0412849 999,96.2481112 999,93.4404972 C999,81.106387 1007.05055,70.1296683 1018.72549,66.327734 C1021.3787,43.2520763 1040.67646,26 1064.1028,26 C1081.3156,26 1096.75339,35.3944703 1104.65722,50.5918931 C1132.22869,51.049858 1154.72517,73.5788458 1154.98347,101.205272 L1155,103 L1000.62003,103 L1000.23568,101.737502 Z" id="Page-1-Copy-4"></path>
                <path d="M953.57629,423.376788 C952.529823,419.910223 952,416.319 952,412.709211 C952,396.851069 962.269607,382.738145 977.162647,377.849944 C980.547189,348.181241 1005.1642,326 1035.0478,326 C1057.00515,326 1076.69823,338.078605 1086.78069,357.618148 C1121.95198,358.20696 1150.64942,387.172802 1150.97891,422.692493 L1151,425 L954.066574,425 L953.57629,423.376788 Z" id="Page-1-Copy-5"></path>
                <path d="M1.893132,357.065263 C0.636320286,352.933398 0,348.65295 0,344.350372 C0,325.448749 12.3338499,308.627284 30.2204649,302.800943 C34.2853169,267.438247 63.8504669,241 99.7408305,241 C126.111716,241 149.763203,255.396721 161.872283,278.686278 C204.113186,279.388094 238.578952,313.913036 238.974674,356.249638 L239,359 L2.48196569,359 L1.893132,357.065263 Z" id="Page-1-Copy" opacity="0.811742071"></path>
            </g>
        </g>
    </g>
</svg>