<svg xmlns="http://www.w3.org/2000/svg" viewBox="0 0 426.6 83.27">
  <defs>
    <style>
      .cls-1 {
        fill: #febe10;
      }
    </style>
  </defs>
  <title>Asset 21x</title>
  <g id="Layer_2" data-name="Layer 2">
    <g id="isologos">
      <path class="cls-1" d="M28.39,10.72a13.77,13.77,0,0,0-9.71,3.68,11.88,11.88,0,0,0-4,9.23v2.62h8.56V36.47H14.65V70.75H4.33V36.47H0V26.25H4.33V23.63A21.65,21.65,0,0,1,11.56,7.29,24.06,24.06,0,0,1,28.39.43Z" />
      <path class="cls-1" d="M34.07.43H44.39V70.75H34.07Z" />
      <path class="cls-1" d="M210.5,44.22A27.5,27.5,0,0,1,183,71.61a27.41,27.41,0,0,1-27.48-27.38,26.42,26.42,0,0,1,8.05-19.38,27.34,27.34,0,0,1,38.86,0A26.45,26.45,0,0,1,210.5,44.22Zm-10.32,0A17.36,17.36,0,0,0,183,27.06,17.27,17.27,0,0,0,165.8,44.22a17.19,17.19,0,0,0,34.38,0Z" />
      <path class="cls-1" d="M250.7,39.95a12.89,12.89,0,0,0-25.77,0V70.75H214.61V39.95a22.24,22.24,0,0,1,7-16.21,22.21,22.21,0,0,1,32.37,0q7,7,7,16.21V70.75H250.7Z" />
      <path class="cls-1" d="M320.09,44.22a27.5,27.5,0,0,1-27.53,27.38,27.41,27.41,0,0,1-27.48-27.38,26.88,26.88,0,0,1,7.75-19.33A26,26,0,0,1,309.77,24V.43h10.32Zm-10.32,0a17.36,17.36,0,0,0-17.22-17.17,17.27,17.27,0,0,0-17.17,17.17,17.19,17.19,0,0,0,34.38,0Z" />
      <path class="cls-1" d="M325.65,17.6H336V70.75H325.65Z" />
      <polygon class="cls-1" points="82.19 16.83 71.36 44.18 60.41 16.83 48.67 16.83 65.5 59.74 55.28 83.27 66.95 83.27 93.9 16.83 82.19 16.83" />
      <circle class="cls-1" cx="330.81" cy="5.26" r="5.26" />
      <path class="cls-1" d="M144.6,25a26,26,0,0,0-37.06-.86V.43H97.17v44a26.88,26.88,0,0,0,2.76,12.17l5.72.89a.84.84,0,0,0,.54-.09c1.94-1.49,7-4.83,8.92-6.32,0,0,0,0,0-.13-.53-.16-3.91-2.29-9.81-5.77-1.2-.71-1.39-.75-.27-1.78.64-.59,1.31-1.15,1.93-1.76a3.4,3.4,0,0,1,2.39-1c3.12-.11,11.34,2.91,14.66,2.8a2.34,2.34,0,0,0,1.3-.52c2.46-1.46,7.54-4.39,10.24-5.7,2.24-1.09,7.76-4.07,10-1,.62.88,2.2,3.1-4.11,7.6-2.5,2.15-30.5,18.24-35.2,21A27.69,27.69,0,0,0,144.3,64a26.6,26.6,0,0,0,8.15-19.49A27.4,27.4,0,0,0,144.6,25Z" />
      <circle class="cls-1" cx="343.39" cy="68.8" r="2.79" />
      <path class="cls-1" d="M360.32,71.66a11.21,11.21,0,0,1-7.93-19.13,11.27,11.27,0,0,1,15.89,0l.29.29-3.27,3.27L365,55.8a6.37,6.37,0,0,0-4.69-1.93,6.58,6.58,0,1,0,0,13.16A6.36,6.36,0,0,0,365,65.1l.28-.29,3.27,3.28-.29.29A10.9,10.9,0,0,1,360.32,71.66Z" />
      <path class="cls-1" d="M380.54,71.66a11.21,11.21,0,0,1-7.92-19.13,11.21,11.21,0,1,1,15.85,15.85A10.85,10.85,0,0,1,380.54,71.66Zm0-17.79a6.57,6.57,0,1,0,4.66,1.93A6.29,6.29,0,0,0,380.54,53.87Z" />
      <path class="cls-1" d="M422,70.5V58.6a4.73,4.73,0,0,0-4.73-4.73,4.45,4.45,0,0,0-3.32,1.39,4.54,4.54,0,0,0-1.37,3.34V70.5H407.9V58.6a4.53,4.53,0,0,0-1.37-3.34,4.45,4.45,0,0,0-3.32-1.39,4.56,4.56,0,0,0-3.34,1.39,4.5,4.5,0,0,0-1.38,3.34V70.5h-4.63V58.6a9.34,9.34,0,0,1,13.48-8.39A9.63,9.63,0,0,1,409.81,52l.41.42.41-.42a9.55,9.55,0,0,1,2.48-1.78A9.36,9.36,0,0,1,426.6,58.6V70.5Z" />
    </g>
  </g>
</svg>
